<svg xmlns="http://www.w3.org/2000/svg" xmlns:xlink="http://www.w3.org/1999/xlink" version="1.1" width="96" height="96" viewBox="0 0 96 96">
<path d="M84 94.752h-72c-1.104 0-2-0.896-2-2v-52c0-1.104 0.896-2 2-2h72c1.1 0 2 0.896 2 2v52c0 1.104-0.9 2-2 2zM14 90.752h68v-48h-68v48z" fill="#000000"/>
	<path d="M88 42.752h-80c-1.104 0-2-0.896-2-2v-16c0-1.104 0.896-2 2-2h80c1.1 0 2 0.896 2 2v16c0 1.104-0.9 2-2 2zM10 38.752h76v-12h-76v12z" fill="#000000"/>
	<path d="M48 92.752c-1.104 0-2-0.896-2-2v-64c0-1.104 0.896-2 2-2s2 0.896 2 2v64c0 1.104-0.896 2-2 2z" fill="#000000"/>
	<path d="M23 26.752c-7.936 0-13-7.108-13-12 0-4.532 3.624-9.832 13.832-9.832 9.204 0 20.164 8.508 25.8 16.516 0.632 0.904 0.42 2.148-0.484 2.784-0.908 0.636-2.152 0.424-2.788-0.484-5.132-7.284-14.96-14.82-22.532-14.82-6.16 0-9.832 2.18-9.832 5.832 0 2.824 3.416 8 9 8 1.104 0 2 0.896 2 2s-0.892 2.004-1.996 2.004z" fill="#000000"/>
	<path d="M73 26.752c-1.1 0-2-0.896-2-2s0.9-2 2-2c5.584 0 9-5.176 9-8 0-3.652-3.676-5.832-9.832-5.832-7.576 0-17.404 7.536-22.532 14.82-0.636 0.904-1.88 1.12-2.788 0.484-0.904-0.64-1.12-1.884-0.484-2.784 5.64-8.008 16.596-16.516 25.8-16.516 10.212 0 13.832 5.3 13.832 9.832 0.004 4.888-5.060 11.996-12.996 11.996z" fill="#000000"/>
	<path d="M48 22.584c-1.104 0-2-0.896-2-2 0-3.636-5.136-11.312-9.748-15.924-0.78-0.78-0.78-2.048 0-2.828s2.048-0.78 2.828 0c4.532 4.536 10.916 13.348 10.916 18.752 0.004 1.104-0.892 2-1.996 2z" fill="#000000"/>
	<path d="M48 22.584c-1.104 0-2-0.896-2-2 0-5.4 6.384-14.216 10.916-18.752 0.78-0.78 2.052-0.78 2.828 0 0.78 0.78 0.78 2.048 0 2.828-4.604 4.612-9.748 12.288-9.748 15.924 0.004 1.104-0.892 2-1.996 2z" fill="#000000"/>
</svg>